<svg width="512" height="512" viewBox="0 0 512 512" xmlns="http://www.w3.org/2000/svg">
  <defs>
    <linearGradient id="g1" x1="0" y1="0" x2="1" y2="1">
      <stop offset="0%" stop-color="#7C4DFF"/>
      <stop offset="100%" stop-color="#3F2B96"/>
    </linearGradient>
    <linearGradient id="g2" x1="1" y1="0" x2="0" y2="1">
      <stop offset="0%" stop-color="#FF6B6B"/>
      <stop offset="100%" stop-color="#E94560"/>
    </linearGradient>
    <linearGradient id="g3" x1="0" y1="1" x2="1" y2="0">
      <stop offset="0%" stop-color="#4DD0E1"/>
      <stop offset="100%" stop-color="#1E88E5"/>
    </linearGradient>
    <filter id="shadow" x="-20%" y="-20%" width="140%" height="140%">
      <feDropShadow dx="0" dy="8" stdDeviation="12" flood-color="#000000" flood-opacity="0.18"/>
    </filter>
  </defs>

  <rect width="512" height="512" rx="96" fill="#F7F8FC"/>

  <g filter="url(#shadow)">
    <path d="M256 92
             C316 120 348 182 338 245
             C329 300 290 343 256 380
             C222 343 183 300 174 245
             C164 182 196 120 256 92Z"
          fill="url(#g1)"/>

    <path d="M420 310
             C391 370 327 404 264 395
             C210 387 169 347 132 313
             C169 280 210 240 264 232
             C327 223 391 257 420 310Z"
          fill="url(#g2)" opacity="0.96"/>

    <path d="M92 310
             C121 257 185 223 248 232
             C302 240 343 280 380 313
             C343 347 302 387 248 395
             C185 404 121 370 92 310Z"
          fill="url(#g3)" opacity="0.96"/>

    <circle cx="256" cy="256" r="54" fill="#FFFFFF"/>
    <circle cx="256" cy="256" r="28" fill="#2B2D42"/>
  </g>
</svg>
